<svg xmlns="http://www.w3.org/2000/svg" version="1.1" xmlns:xlink="http://www.w3.org/1999/xlink" xmlns:svgjs="http://svgjs.dev/svgjs" width="1500" height="401" viewBox="0 0 1500 401"><g transform="matrix(1,0,0,1,0.45420396273596,1.2700720802327226)"><svg viewBox="0 0 396 106" data-background-color="#ffffff" preserveAspectRatio="xMidYMid meet" height="401" width="1500" xmlns="http://www.w3.org/2000/svg" xmlns:xlink="http://www.w3.org/1999/xlink"><g id="tight-bounds" transform="matrix(1,0,0,1,0.24425086376470517,0.1920561590144132)"><svg viewBox="0 0 395.52 105.732616020375" height="105.732616020375" width="395.52"><g><svg viewBox="0 0 588.8676289546015 157.41938435246144" height="105.732616020375" width="395.52"><g><rect width="5.762199762404273" height="136.68832215843247" x="172.50113662045825" y="10.365531097014482" fill="#51caf4" opacity="1" stroke-width="0" stroke="transparent" fill-opacity="1" class="rect-yte-0" data-fill-palette-color="primary" rx="1%" id="yte-0" data-palette-color="#51caf4"></rect></g><g transform="matrix(1,0,0,1,193.34762895460145,21.75622461021718)"><svg viewBox="0 0 395.52000000000004 113.90693513202707" height="113.90693513202707" width="395.52000000000004"><g id="textblocktransform"><svg viewBox="0 0 395.52000000000004 113.90693513202707" height="113.90693513202707" width="395.52000000000004" id="textblock"><g><svg viewBox="0 0 395.52000000000004 63.89591729671349" height="63.89591729671349" width="395.52000000000004"><g transform="matrix(1,0,0,1,0,0)"><svg width="395.52000000000004" viewBox="2.55 -38.4 324.02 52.35" height="63.89591729671349" data-palette-color="#51caf4"><path d="M33-31.45L33 0 28.4 0 12.15-27.85 12.15-3.85 15.6-2.2 15.6 0 2.55 0 2.55-2.2 7.1-3.85 7.1-31.45 2.55-33.1 2.55-35.3 12.8-35.3 27.95-9.2 27.95-31.45 24.5-33.1 24.5-35.3 37.55-35.3 37.55-33.1 33-31.45ZM62.85-3.08Q59.2 0.55 53.65 0.55 48.1 0.55 44.45-3.08 40.8-6.7 40.8-12.5 40.8-18.3 44.45-21.95 48.1-25.6 53.65-25.6 59.2-25.6 62.85-21.95 66.5-18.3 66.5-12.5 66.5-6.7 62.85-3.08ZM47.9-5.83Q50.15-3.4 53.65-3.4 57.15-3.4 59.4-5.83 61.65-8.25 61.65-12.35 61.65-16.45 59.37-19.05 57.1-21.65 53.65-21.65 50.2-21.65 47.92-19.05 45.65-16.45 45.65-12.35 45.65-8.25 47.9-5.83ZM130.39-2.15L130.39 0 117.24 0 117.24-2.15 121.24-3.8 121.24-15.75Q121.24-18.7 120.27-20.15 119.29-21.6 116.74-21.6L116.74-21.6Q112.74-21.6 109.89-18.75L109.89-18.75Q110.04-18.15 110.04-17.5L110.04-17.5 110.04-3.8 114.49-2.15 114.49 0 101.34 0 101.34-2.15 105.34-3.8 105.34-15.75Q105.34-18.7 104.37-20.15 103.39-21.6 100.84-21.6L100.84-21.6Q96.74-21.6 93.49-18.35L93.49-18.35 93.49-3.8 97.74-2.15 97.74 0 84.59 0 84.59-2.15 88.79-3.8 88.79-21.65 84.59-21.65 84.59-24.65Q86.54-25.6 89.04-25.6 91.54-25.6 92.47-24.5 93.39-23.4 93.49-21.2L93.49-21.2Q94.19-22.1 95.59-23.25L95.59-23.25Q98.54-25.6 102.24-25.6L102.24-25.6Q107.74-25.6 109.44-21.2L109.44-21.2Q113.09-25.6 118.14-25.6L118.14-25.6Q122.04-25.6 123.99-23.43 125.94-21.25 125.94-17.5L125.94-17.5 125.94-3.8 130.39-2.15ZM146.24 0.5L146.24 0.5Q140.59 0.5 137.06-2.73 133.54-5.95 133.54-12.15 133.54-18.35 137.14-21.98 140.74-25.6 145.54-25.6L145.54-25.6Q156.94-25.6 156.94-12.1L156.94-12.1 138.39-12.1 138.39-11.85Q138.39-8.3 140.89-5.85 143.39-3.4 147.69-3.4L147.69-3.4Q149.54-3.4 151.19-3.83 152.84-4.25 153.59-4.7L153.59-4.7 154.29-5.1 155.74-2.5Q155.59-2.4 155.31-2.18 155.04-1.95 154.14-1.45 153.24-0.95 152.19-0.55L152.19-0.55Q149.54 0.5 146.24 0.5ZM152.29-15.3Q152.04-18.4 150.26-20.03 148.49-21.65 145.66-21.65 142.84-21.65 140.99-20.08 139.14-18.5 138.59-15.3L138.59-15.3 152.29-15.3ZM179.69-23.6L179.69-17.85 176.54-17.85 175.84-20.35Q174.54-21.6 171.84-21.6 169.14-21.6 167.66-20.9 166.19-20.2 166.19-19.03 166.19-17.85 167.29-16.82 168.39-15.8 169.54-15.3 170.69-14.8 173.64-13.8 176.59-12.8 178.46-11.15 180.34-9.5 180.34-6.8L180.34-6.8Q180.34-3.2 177.71-1.33 175.09 0.55 171.71 0.55 168.34 0.55 165.91-0.3 163.49-1.15 162.44-2L162.44-2 161.44-2.85 161.44-8.2 164.44-8.2 165.49-5.1Q165.54-4.95 166.29-4.6L166.29-4.6Q168.64-3.4 170.99-3.4 173.34-3.4 174.59-4.13 175.84-4.85 175.84-6.18 175.84-7.5 174.44-8.7 173.04-9.9 169.76-10.88 166.49-11.85 164.26-13.73 162.04-15.6 162.04-18.1L162.04-18.1Q162.04-21.85 164.66-23.73 167.29-25.6 171.44-25.6L171.44-25.6Q173.49-25.6 175.54-25.1 177.59-24.6 178.64-24.1L178.64-24.1 179.69-23.6ZM203.59-23.6L203.59-17.85 200.44-17.85 199.74-20.35Q198.44-21.6 195.74-21.6 193.03-21.6 191.56-20.9 190.09-20.2 190.09-19.03 190.09-17.85 191.19-16.82 192.28-15.8 193.44-15.3 194.59-14.8 197.53-13.8 200.49-12.8 202.36-11.15 204.24-9.5 204.24-6.8L204.24-6.8Q204.24-3.2 201.61-1.33 198.99 0.55 195.61 0.55 192.24 0.55 189.81-0.3 187.39-1.15 186.34-2L186.34-2 185.34-2.85 185.34-8.2 188.34-8.2 189.39-5.1Q189.44-4.95 190.19-4.6L190.19-4.6Q192.53-3.4 194.89-3.4 197.24-3.4 198.49-4.13 199.74-4.85 199.74-6.18 199.74-7.5 198.34-8.7 196.94-9.9 193.66-10.88 190.39-11.85 188.16-13.73 185.94-15.6 185.94-18.1L185.94-18.1Q185.94-21.85 188.56-23.73 191.19-25.6 195.34-25.6L195.34-25.6Q197.39-25.6 199.44-25.1 201.49-24.6 202.54-24.1L202.54-24.1 203.59-23.6ZM229.63-3.4L233.83-3.4 233.83-0.4Q231.88 0.55 229.53 0.55 227.18 0.55 226.16-0.35 225.13-1.25 224.98-2.95L224.98-2.95Q222.23 0.55 217.76 0.55 213.28 0.55 210.98-1.25 208.68-3.05 208.68-6.3L208.68-6.3Q208.68-12.55 217.38-13.5L217.38-13.5 224.93-14.3 224.93-15.75Q224.93-18.65 223.73-20.15 222.53-21.65 219.93-21.65L219.93-21.65Q215.13-21.65 212.13-20.6L212.13-20.6 211.13-20.25 210.23-23.45Q211.63-24.25 214.48-24.93 217.33-25.6 219.78-25.6L219.78-25.6Q225.13-25.6 227.38-23.48 229.63-21.35 229.63-17.5L229.63-17.5 229.63-3.4ZM217.63-10.25Q215.73-10 214.61-9.1 213.48-8.2 213.48-6.68 213.48-5.15 214.71-4.28 215.93-3.4 218.13-3.4L218.13-3.4Q222.28-3.4 224.93-5.65L224.93-5.65 224.93-11.05 217.63-10.25ZM259.98-16.15L259.98-16.15Q259.98-11.95 256.75-9.4 253.53-6.85 248.98-6.85L248.98-6.85Q246.48-6.85 244.23-7.7L244.23-7.7 241.93-3.55 251.63-3.55Q256.98-3.55 259.38-1.5 261.78 0.55 261.78 4.5 261.78 8.45 258.33 11.2 254.88 13.95 248.68 13.95 242.48 13.95 239.28 11.55 236.08 9.15 236.08 5.48 236.08 1.8 239.68 0.2L239.68 0.2Q237.58-0.5 237.58-2.8L237.58-2.8 237.78-4.05Q240.63-8.4 241.23-9.4L241.23-9.4Q237.98-12 237.98-16.18 237.98-20.35 241.23-22.98 244.48-25.6 248.98-25.6L248.98-25.6Q251.83-25.6 254.48-24.4L254.48-24.4 263.23-25.55 263.08-21.2 258.03-21.65Q259.98-19.3 259.98-16.15ZM240.48 4.95L240.48 4.95Q240.48 7.25 242.61 8.63 244.73 10 248.58 10 252.43 10 254.71 8.55 256.98 7.1 256.98 4.55L256.98 4.55Q256.98 0.45 251.73 0.45L251.73 0.45 242.83 0.5Q240.48 1.8 240.48 4.95ZM248.98-10.6Q252.08-10.6 253.83-12.25 255.58-13.9 255.58-16.2 255.58-18.5 253.83-20.2 252.08-21.9 248.96-21.9 245.83-21.9 244.13-20.23 242.43-18.55 242.43-16.23 242.43-13.9 244.16-12.25 245.88-10.6 248.98-10.6ZM279.33 0.5L279.33 0.5Q273.68 0.5 270.15-2.73 266.63-5.95 266.63-12.15 266.63-18.35 270.23-21.98 273.83-25.6 278.63-25.6L278.63-25.6Q290.03-25.6 290.03-12.1L290.03-12.1 271.48-12.1 271.48-11.85Q271.48-8.3 273.98-5.85 276.48-3.4 280.78-3.4L280.78-3.4Q282.63-3.4 284.28-3.83 285.93-4.25 286.68-4.7L286.68-4.7 287.38-5.1 288.83-2.5Q288.68-2.4 288.4-2.18 288.13-1.95 287.23-1.45 286.33-0.95 285.28-0.55L285.28-0.55Q282.63 0.5 279.33 0.5ZM285.38-15.3Q285.13-18.4 283.35-20.03 281.58-21.65 278.75-21.65 275.93-21.65 274.08-20.08 272.23-18.5 271.68-15.3L271.68-15.3 285.38-15.3ZM312.78-23.6L312.78-17.85 309.63-17.85 308.93-20.35Q307.63-21.6 304.93-21.6 302.23-21.6 300.75-20.9 299.28-20.2 299.28-19.03 299.28-17.85 300.38-16.82 301.48-15.8 302.63-15.3 303.78-14.8 306.73-13.8 309.68-12.8 311.55-11.15 313.43-9.5 313.43-6.8L313.43-6.8Q313.43-3.2 310.8-1.33 308.18 0.55 304.8 0.55 301.43 0.55 299-0.3 296.58-1.15 295.53-2L295.53-2 294.53-2.85 294.53-8.2 297.53-8.2 298.58-5.1Q298.63-4.95 299.38-4.6L299.38-4.6Q301.73-3.4 304.08-3.4 306.43-3.4 307.68-4.13 308.93-4.85 308.93-6.18 308.93-7.5 307.53-8.7 306.13-9.9 302.85-10.88 299.58-11.85 297.35-13.73 295.13-15.6 295.13-18.1L295.13-18.1Q295.13-21.85 297.75-23.73 300.38-25.6 304.53-25.6L304.53-25.6Q306.58-25.6 308.63-25.1 310.68-24.6 311.73-24.1L311.73-24.1 312.78-23.6ZM326.57-38.4L325.27-10.8 321.92-10.8 320.87-38.4 326.57-38.4ZM323.27-5.75Q324.62-5.75 325.55-4.88 326.47-4 326.47-2.68 326.47-1.35 325.52-0.43 324.57 0.5 323.25 0.5 321.92 0.5 321.07-0.4 320.22-1.3 320.22-2.6 320.22-3.9 321.07-4.83 321.92-5.75 323.27-5.75Z" opacity="1" transform="matrix(1,0,0,1,0,0)" fill="#51caf4" class="wordmark-text-0" data-fill-palette-color="primary" id="text-0"></path></svg></g></svg></g><g transform="matrix(1,0,0,1,0,78.98020986845242)"><svg viewBox="0 0 232.209792 34.926725263574646" height="34.926725263574646" width="232.209792"><g transform="matrix(1,0,0,1,0,0)"><svg width="232.209792" viewBox="2.15 -50.126612903225805 360.15000000000003 54.17661290322081" height="34.926725263574646" data-palette-color="#51caf4"><path d="M60.7-10.7L60.7-10.7Q61.9-11.7 62.8-11.53 63.7-11.35 63.75-9.75L63.75-9.75Q63.75-8.65 62.93-7.53 62.1-6.4 60.73-5.45 59.35-4.5 57.7-3.63 56.05-2.75 54.35-2.1 52.65-1.45 51.28-1.03 49.9-0.6 48.95-0.4L48.95-0.4Q46.6 0.05 44.23 0.08 41.85 0.1 39.48-0.4 37.1-0.9 35.08-2.23 33.05-3.55 31.75-5.6L31.75-5.6Q29.5-9.1 29.98-13.48 30.45-17.85 33.8-25.2L33.8-25.2Q35.65-29.3 36.15-31.1L36.15-31.1Q36.5-32.55 38.2-35.65L38.2-35.65Q40.5-39.85 38.65-39.75L38.65-39.75Q37.35-39.65 34.75-37.3L34.75-37.3Q32.55-35.4 30.35-33.7L30.35-33.7Q28.85-32.65 24.68-26.88 20.5-21.1 19.45-18.8L19.45-18.8Q18.55-16.45 16.7-13.85L16.7-13.85Q13.6-9.25 10.45-3.55L10.45-3.55Q8.85-0.35 8.3-0.35L8.3-0.35Q7.95-0.35 6.45 0L6.45 0Q5.05 0.4 3.55-1.65L3.55-1.65 2.15-3.7 4-6.5Q5.25-8.3 7.75-12.85 10.25-17.4 11.45-19.05L11.45-19.05Q12.4-20.45 13.75-23L13.75-23Q15.1-25.5 16.2-28L16.2-28Q17.3-30.5 17.7-31.8L17.7-31.8Q18.15-33.5 19.55-36.1L19.55-36.1Q20.6-37.95 20.88-40.33 21.15-42.7 20.4-43.35L20.4-43.35Q20.2-43.65 18.82-43.13 17.45-42.6 15.8-41.8L15.8-41.8Q14.2-40.95 12.65-40L12.65-40Q11.1-39.1 10.55-38.45L10.55-38.45Q9.35-37.15 8.28-37.18 7.2-37.2 5.8-38.8L5.8-38.8Q4.3-40.5 4.3-40.65L4.3-40.65Q4.3-41.4 10.63-45.03 16.95-48.65 20.05-49.8L20.05-49.8Q21.5-50.25 23.75-50.08 26-49.9 27.1-49.15L27.1-49.15Q27.75-48.75 28.03-48.25 28.3-47.75 28.4-46.85L28.4-46.85Q28.5-45.95 28.5-44.2L28.5-44.2 28.5-40.4 32.4-43.35Q35-45.4 36.27-45.98 37.55-46.55 39.95-46.55L39.95-46.55Q42.75-46.6 43.35-46.28 43.95-45.95 44.5-44.2L44.5-44.2Q45.35-42.05 44.9-38.9L44.9-38.9Q44.25-35 42.75-29.93 41.25-24.85 39.95-22.45L39.95-22.45Q38.35-19.25 38.35-17.7L38.35-17.7Q38.35-16.2 37.45-15.55L37.45-15.55Q36.3-14.55 35.95-12.9 35.6-11.25 35.98-9.68 36.35-8.1 37.38-6.83 38.4-5.55 39.75-5.2L39.75-5.2Q42.35-4.75 45.75-4.98 49.15-5.2 52.3-5.85L52.3-5.85Q53.45-6.25 53.95-6.5L53.95-6.5Q58.25-8.75 60.7-10.7ZM92.02-6.1L92.02-6.1Q92.97-6.85 93.65-6.73 94.32-6.6 94.32-5.4L94.32-5.4Q94.32-5.15 94.22-4.88 94.12-4.6 94-4.38 93.87-4.15 93.62-3.9 93.37-3.65 93.17-3.45 92.97-3.25 92.67-3.03 92.37-2.8 92.17-2.68 91.97-2.55 91.67-2.35 91.37-2.15 91.22-2.05L91.22-2.05Q90.27-1.4 89.22-0.95L89.22-0.95Q89.12-0.9 88.02-0.35L88.02-0.35 87.77-0.05Q86.42 1.25 83.87 1.55L83.87 1.55Q82.27 1.75 81.4 1.58 80.52 1.4 78.97 0.7L78.97 0.7Q76.67-0.4 75.92-1.1L75.92-1.1Q75.42-1.5 75.07-1.45 74.72-1.4 73.77-0.65L73.77-0.65Q70.72 1.55 66.5 1.83 62.27 2.1 60.97 0.15L60.97 0.15Q60.17-1.1 60.25-4.7 60.32-8.3 61.17-9.85L61.17-9.85Q61.92-11.2 62.32-11.85L62.32-11.85Q62.77-12.5 63.17-13.05L63.17-13.05Q63.57-13.65 64.52-14.8L64.52-14.8Q67.67-18.7 69.47-20.15L69.47-20.15Q70.87-21.25 72.77-22.03 74.67-22.8 76.75-23.05 78.82-23.3 80.42-22.5L80.42-22.5Q82.37-21.5 82.82-19.07 83.27-16.65 82.72-14.38 82.17-12.1 81.17-10.1L81.17-10.1Q80.32-8.2 79.9-5.95 79.47-3.7 79.92-3L79.92-3Q80.87-1.1 86.17-2.75L86.17-2.75Q86.37-2.8 86.57-2.8L86.57-2.8Q86.87-2.9 87.02-3L87.02-3Q90.22-4.65 92.02-6.1ZM76.92-15.5L76.92-15.5Q77.47-15.8 77.52-16 77.57-16.2 77.27-16.5L77.27-16.5Q76.67-17.15 75.57-17.35 74.47-17.55 73.42-17.25L73.42-17.25Q72.37-17 70.25-15.25 68.12-13.5 67.37-12.25L67.37-12.25Q66.37-10.8 65.67-9.65L65.67-9.65Q64.82-8.45 64.52-6.15 64.22-3.85 64.77-3.15L64.77-3.15Q65.27-2.55 66.97-2.55 68.67-2.55 70.17-3.1L70.17-3.1Q71.62-3.8 72.32-5.2L72.32-5.2Q73.52-7.55 74.27-9L74.27-9Q75.57-11.25 75.57-12.05L75.57-12.05Q75.57-12.55 76-13.08 76.42-13.6 76.22-14.2L76.22-14.2Q75.97-15 76.92-15.5ZM135.52-7.6L135.52-7.6Q136.62-8.5 137.45-8.33 138.27-8.15 138.32-6.75L138.32-6.75Q138.32-6.3 138.12-5.85 137.92-5.4 137.67-5.08 137.42-4.75 136.92-4.35 136.42-3.95 136.15-3.75 135.87-3.55 135.3-3.18 134.72-2.8 134.57-2.7L134.57-2.7Q133.02-1.65 131.57-0.45L131.57-0.45Q129.62 1.1 127.52 1.7L127.52 1.7Q125.07 2.4 123.72 2.45L123.72 2.45Q122.32 2.5 120.27 1.9L120.27 1.9Q118.32 1.4 117.15 0.58 115.97-0.25 115.32-1.55 114.67-2.85 114.65-4.83 114.62-6.8 115.12-9.3L115.12-9.3Q115.57-11.85 116.62-15.45L116.62-15.45Q116.92-16.35 116.42-16.35L116.42-16.35Q115.07-16.35 111.17-11.55 107.27-6.75 105.12-2.55L105.12-2.55Q103.62 0.35 102.62 0.95 101.62 1.55 100.37 0.35L100.37 0.35Q99.32-0.6 99.37-1.48 99.42-2.35 100.67-5.2L100.67-5.2Q101.72-7.3 101.72-8.1L101.72-8.1Q101.72-8.8 102.77-11L102.77-11Q103.47-13.5 103.22-13.65L103.22-13.65Q102.67-13.65 101.05-11.88 99.42-10.1 97.65-7.63 95.87-5.15 94.97-3.45L94.97-3.45Q93.57-0.85 92.42-0.15 91.27 0.55 90.12-0.45L90.12-0.45Q89.02-1.45 89.27-2.93 89.52-4.4 91.27-7.75L91.27-7.75Q91.77-8.8 92.25-10.83 92.72-12.85 93.17-13.7L93.17-13.7Q94.82-17.25 96.77-18.75L96.77-18.75Q97.22-19.1 97.72-19.38 98.22-19.65 98.75-19.73 99.27-19.8 99.45-19.4 99.62-19 99.42-18.05L99.42-18.05Q98.97-16.5 99.77-16.65L99.77-16.65Q100.37-16.7 101.17-18L101.17-18Q102.32-19.75 103.87-20.85L103.87-20.85Q104.47-21.25 104.87-21.45L104.87-21.45Q105.37-21.65 105.52-21.7L105.52-21.7Q105.77-21.85 106.22-21.8 106.67-21.75 106.87-21.7L106.87-21.7Q107.07-21.7 107.67-21.5L107.67-21.5Q108.32-21.3 108.67-21.25L108.67-21.25Q110.07-20.95 110.07-20.45L110.07-20.45Q110.17-20.35 110.22-18.95L110.22-18.95Q110.32-18.3 110.47-18 110.62-17.7 111.07-17.73 111.52-17.75 112.17-18.07 112.82-18.4 114.12-19.25L114.12-19.25Q117.12-21.15 119.27-21.45L119.27-21.45Q120.87-21.6 121.27-21.38 121.67-21.15 122.12-20.2L122.12-20.2Q122.72-18.65 122.37-16.25 122.02-13.85 121.07-11.75L121.07-11.75Q119.97-9.65 119.97-8.55L119.97-8.55Q119.97-7.65 119.42-5.9L119.42-5.9Q118.87-4.4 119.6-3.1 120.32-1.8 121.87-1.5L121.87-1.5Q122.77-1.35 124.22-1.65L124.22-1.65Q124.62-1.75 129.07-3.65L129.07-3.65Q129.07-3.65 130-4.2L130-4.2Q130.92-4.75 132-5.38 133.07-6 134.12-6.65 135.17-7.3 135.52-7.6ZM159.14-5.6L159.14-5.6Q160.24-6.5 161.07-6.33 161.89-6.15 161.89-4.75L161.89-4.75Q161.94-4.3 161.72-3.85 161.49-3.4 161.24-3.08 160.99-2.75 160.52-2.35 160.04-1.95 159.74-1.75 159.44-1.55 158.87-1.18 158.29-0.8 158.19-0.7L158.19-0.7Q156.99 0.1 155.74 0.65L155.74 0.65Q155.64 0.7 155.47 0.78 155.29 0.85 155.09 0.93 154.89 1 154.69 1.07 154.49 1.15 154.37 1.2L154.37 1.2 154.24 1.25Q151.19 2.5 147.69 2.7L147.69 2.7Q144.09 2.9 142.44 2.05L142.44 2.05Q142.24 1.95 140.84 1.35 139.44 0.75 138.84 0.3L138.84 0.3Q137.69-0.45 136.64-2.95L136.64-2.95Q134.69-7.45 134.69-10.9L134.69-10.9Q134.69-13 135.44-16.4L135.44-16.4Q135.49-16.6 135.62-17.25 135.74-17.9 135.84-18.23 135.94-18.55 136.09-19.13 136.24-19.7 136.39-20.1 136.54-20.5 136.74-20.93 136.94-21.35 137.14-21.7L137.14-21.7Q138.19-23.15 138.84-23.8L138.84-23.8Q141.54-26.6 145.69-26.3L145.69-26.3Q149.99-25.95 150.34-23.45L150.34-23.45Q150.64-21.5 150.12-19.43 149.59-17.35 148.82-16 148.04-14.65 146.67-12.5 145.29-10.35 144.69-9.2L144.69-9.2Q142.49-5.05 142.49-4.25L142.49-4.25Q142.49-3.6 143.74-2.4L143.74-2.4Q144.54-1.65 145.17-1.5 145.79-1.35 147.44-1.65L147.44-1.65Q150.04-2 153.09-2.9L153.09-2.9Q154.24-3.3 156.44-4.25 158.64-5.2 159.14-5.6ZM139.74-9.15L139.74-9.15Q140.19-9.15 142.24-13.05L142.24-13.05Q144.24-16.95 144.24-17.75L144.24-17.75Q144.24-18.7 143.22-18.98 142.19-19.25 141.59-18.5L141.59-18.5Q141.09-17.9 140.59-16.7L140.59-16.7Q140.09-15.5 139.79-14.25L139.79-14.25Q139.54-13 139.34-11.85L139.34-11.85Q139.14-10.7 139.24-9.93 139.34-9.15 139.74-9.15ZM238.34-9.25L238.34-9.25Q239.49-10.2 240.34-10.03 241.19-9.85 241.24-8.35L241.24-8.35Q241.24-7.95 241.11-7.58 240.99-7.2 240.69-6.85 240.39-6.5 240.11-6.2 239.84-5.9 239.41-5.58 238.99-5.25 238.71-5.05 238.44-4.85 237.96-4.55 237.49-4.25 237.34-4.1L237.34-4.1Q232.44-0.75 229.34-0.1L229.34-0.1Q227.79 0.3 223.99-0.1 220.19-0.5 218.59-0.33 216.99-0.15 216.29 0.55L216.29 0.55Q215.04 1.6 213.36 1.6 211.69 1.6 210.14 2.6L210.14 2.6Q208.74 3.65 204.34 4L204.34 4Q201.24 4.15 200.06 3.85 198.89 3.55 195.74 1.7L195.74 1.7Q194.79 1.2 193.16 0.58 191.54-0.05 190.19-0.53 188.84-1 187.36-1.78 185.89-2.55 184.91-3.43 183.94-4.3 183.46-5.68 182.99-7.05 183.24-8.75L183.24-8.75Q183.64-10.8 185.19-13.15L185.19-13.15Q186.24-14.8 187.31-15.4 188.39-16 189.31-15.8 190.24-15.6 191.34-15.28 192.44-14.95 193.56-14.73 194.69-14.5 196.19-15.15L196.19-15.15Q197.69-15.75 199.14-18.1 200.59-20.45 201.04-22.35L201.04-22.35Q201.29-24 201.24-24.8 201.19-25.6 200.69-26.35 200.19-27.1 199.66-27.53 199.14-27.95 198.46-28.88 197.79-29.8 197.34-30.95L197.34-30.95Q197.04-31.75 197.14-33.3L197.14-33.3Q197.19-34.75 197.54-36.52 197.89-38.3 198.56-40.25 199.24-42.2 200.14-43.98 201.04-45.75 202.29-47.1 203.54-48.45 204.91-49.1 206.29-49.75 208.06-49.38 209.84-49 211.69-47.45L211.69-47.45Q213.29-46.15 213.54-44.4 213.79-42.65 212.94-38.35L212.94-38.35Q212.24-34.65 212.94-34.08 213.64-33.5 216.89-35.1L216.89-35.1Q220.29-36.65 220.84-36.65L220.84-36.65Q221.99-36.65 227.14-43.15L227.14-43.15Q229.99-46.6 231.69-47.18 233.39-47.75 235.04-45.9L235.04-45.9Q236.54-44.3 236.36-40.65 236.19-37 234.54-34.8L234.54-34.8Q233.04-32.9 232.54-30.85L232.54-30.85Q232.14-29.2 230.84-26.4L230.84-26.4Q229.54-23.6 227.59-19.85L227.59-19.85Q225.64-16.05 225.14-15.05L225.14-15.05Q223.99-12.6 222.09-9.8L222.09-9.8Q219.19-5.6 221.54-4.8L221.54-4.8Q222.59-4.45 223.64-3.8L223.64-3.8Q225.04-3.1 227.39-3.45L227.39-3.45Q227.54-3.5 227.74-3.55L227.74-3.55Q228.49-3.95 230.01-4.5 231.54-5.05 231.99-5.3L231.99-5.3Q236.04-7.35 238.34-9.25ZM206.99-39.8Q206.34-39.8 205.29-38.55 204.24-37.3 204.49-36.95L204.49-36.95Q204.94-36.5 206.16-37.33 207.39-38.15 207.39-38.85L207.39-38.85Q207.39-39.8 206.99-39.8L206.99-39.8ZM201.09-1.65L201.09-1.65Q202.04-1.8 201.09-2.35L201.09-2.35Q200.94-2.4 200.49-2.6L200.49-2.6Q198.99-3.2 198.44-3.8L198.44-3.8Q198.09-4.5 197.51-4.5 196.94-4.5 196.59-3.9L196.59-3.9Q196.44-3.55 197.26-2.95 198.09-2.35 199.29-1.9 200.49-1.45 201.09-1.65ZM217.14-12.45L217.14-12.45Q219.09-15.8 220.79-19.35L220.79-19.35Q222.49-22.95 223.29-25.25 224.09-27.55 225.74-30.05L225.74-30.05Q227.24-32.35 226.89-32.95L226.89-32.95Q225.94-34.65 223.54-32.1L223.54-32.1Q222.59-31.05 218.89-29.7L218.89-29.7Q215.24-28.4 214.89-28.25L214.89-28.25Q213.29-27.45 211.99-27.45L211.99-27.45Q210.99-27.45 208.59-24.9 206.19-22.35 206.19-21.2L206.19-21.2Q206.19-20.6 205.14-18.9L205.14-18.9Q200.04-11.3 200.04-10.85L200.04-10.85Q200.04-9.95 202.49-8.08 204.94-6.2 206.99-5.5L206.99-5.5Q209.79-4.5 211.06-4.9 212.34-5.3 213.99-7.4L213.99-7.4Q215.24-9.1 217.14-12.45ZM269.11-6.1L269.11-6.1Q270.06-6.85 270.74-6.73 271.41-6.6 271.41-5.4L271.41-5.4Q271.41-5.15 271.31-4.88 271.21-4.6 271.09-4.38 270.96-4.15 270.71-3.9 270.46-3.65 270.26-3.45 270.06-3.25 269.76-3.03 269.46-2.8 269.26-2.68 269.06-2.55 268.76-2.35 268.46-2.15 268.31-2.05L268.31-2.05Q267.36-1.4 266.31-0.95L266.31-0.95Q266.21-0.9 265.11-0.35L265.11-0.35 264.86-0.05Q263.51 1.25 260.96 1.55L260.96 1.55Q259.36 1.75 258.49 1.58 257.61 1.4 256.06 0.7L256.06 0.7Q253.76-0.4 253.01-1.1L253.01-1.1Q252.51-1.5 252.16-1.45 251.81-1.4 250.86-0.65L250.86-0.65Q247.81 1.55 243.59 1.83 239.36 2.1 238.06 0.15L238.06 0.15Q237.26-1.1 237.34-4.7 237.41-8.3 238.26-9.85L238.26-9.85Q239.01-11.2 239.41-11.85L239.41-11.85Q239.86-12.5 240.26-13.05L240.26-13.05Q240.66-13.65 241.61-14.8L241.61-14.8Q244.76-18.7 246.56-20.15L246.56-20.15Q247.96-21.25 249.86-22.03 251.76-22.8 253.84-23.05 255.91-23.3 257.51-22.5L257.51-22.5Q259.46-21.5 259.91-19.07 260.36-16.65 259.81-14.38 259.26-12.1 258.26-10.1L258.26-10.1Q257.41-8.2 256.99-5.95 256.56-3.7 257.01-3L257.01-3Q257.96-1.1 263.26-2.75L263.26-2.75Q263.46-2.8 263.66-2.8L263.66-2.8Q263.96-2.9 264.11-3L264.11-3Q267.31-4.65 269.11-6.1ZM254.01-15.5L254.01-15.5Q254.56-15.8 254.61-16 254.66-16.2 254.36-16.5L254.36-16.5Q253.76-17.15 252.66-17.35 251.56-17.55 250.51-17.25L250.51-17.25Q249.46-17 247.34-15.25 245.21-13.5 244.46-12.25L244.46-12.25Q243.46-10.8 242.76-9.65L242.76-9.65Q241.91-8.45 241.61-6.15 241.31-3.85 241.86-3.15L241.86-3.15Q242.36-2.55 244.06-2.55 245.76-2.55 247.26-3.1L247.26-3.1Q248.71-3.8 249.41-5.2L249.41-5.2Q250.61-7.55 251.36-9L251.36-9Q252.66-11.25 252.66-12.05L252.66-12.05Q252.66-12.55 253.09-13.08 253.51-13.6 253.31-14.2L253.31-14.2Q253.06-15 254.01-15.5ZM295.31-6.15L295.31-6.15Q296.41-7.05 297.21-6.9 298.01-6.75 298.06-5.3L298.06-5.3Q298.06-4.95 297.93-4.58 297.81-4.2 297.53-3.85 297.26-3.5 297.01-3.23 296.76-2.95 296.33-2.63 295.91-2.3 295.63-2.13 295.36-1.95 294.91-1.65 294.46-1.35 294.31-1.25L294.31-1.25Q293.11-0.45 291.86 0.1L291.86 0.1Q291.06 0.45 289.16 1.07 287.26 1.7 284.31 2.48 281.36 3.25 278.56 3.08 275.76 2.9 274.36 1.5L274.36 1.5Q273.81 0.95 273.11-0.1 272.41-1.15 271.88-2.15 271.36-3.15 271.11-3.8L271.11-3.8Q270.46-5.55 270.51-8.65L270.51-8.65Q270.96-18.1 278.61-24.85L278.61-24.85Q280.41-26.35 281.26-26.68 282.11-27 284.46-27L284.46-27Q288.76-27 291.03-25.1 293.31-23.2 292.76-20.1L292.76-20.1Q292.41-18.55 292.08-18.18 291.76-17.8 290.61-17.65L290.61-17.65Q289.06-17.5 287.68-18.28 286.31-19.05 286.61-19.95L286.61-19.95Q286.91-20.7 286.28-21.48 285.66-22.25 284.76-22.25L284.76-22.25Q283.11-22.25 279.73-18.78 276.36-15.3 276.36-13.55L276.36-13.55Q276.36-12.9 275.66-11.65L275.66-11.65Q274.91-10.55 274.96-7.85L274.96-7.85Q275.06-5.2 275.81-4.1L275.81-4.1Q277.01-2.3 279.83-1.63 282.66-0.95 285.01-1.4L285.01-1.4Q286.26-1.6 287.71-2.2L287.71-2.2Q290.36-3.25 292.56-4.95L292.56-4.95Q294.26-6.2 294.91-5.9L294.91-5.9Q294.96-5.9 295.08-6 295.21-6.1 295.31-6.15ZM327.78-7.65L327.78-7.65Q328.88-8.6 329.71-8.43 330.53-8.25 330.53-6.85L330.53-6.85Q330.53-6.45 330.41-6.08 330.28-5.7 330.03-5.35 329.78-5 329.5-4.73 329.23-4.45 328.81-4.15 328.38-3.85 328.13-3.65 327.88-3.45 327.43-3.15 326.98-2.85 326.83-2.75L326.83-2.75Q326.78-2.75 326.68-2.7 326.58-2.65 326.58-2.6L326.58-2.6Q326.43-2.5 326.18-2.33 325.93-2.15 325.83-2.1L325.83-2.1Q324.13-0.9 322.78-0.45L322.78-0.45Q321.43-0.1 319.43 0.1L319.43 0.1Q314.33 0.65 311.83-2.25 309.33-5.15 308.28-12.85L308.28-12.85Q307.98-15.3 307.63-15.3L307.63-15.3Q307.33-15.3 304.08-12.5L304.08-12.5Q302.23-10.8 301.43-9.8L301.43-9.8Q301.03-9.4 300.73-8.75 300.43-8.1 300.13-7.2 299.83-6.3 299.68-6L299.68-6Q299.53-5.65 298.98-4.35L298.98-4.35 298.23-2.5Q298.03-2.05 297.98-1.03 297.93 0 297.61 0.6 297.28 1.2 296.38 1.35L296.38 1.35Q294.63 1.6 293.38-0.2L293.38-0.2Q292.58-1.3 292.53-1.85 292.48-2.4 293.08-3.9L293.08-3.9Q293.23-4.2 293.33-4.5L293.33-4.5Q293.43-4.75 293.66-5.43 293.88-6.1 293.96-6.33 294.03-6.55 294.23-7.13 294.43-7.7 294.56-8 294.68-8.3 294.88-8.8 295.08-9.3 295.25-9.65 295.43-10 295.66-10.45 295.88-10.9 296.13-11.35L296.13-11.35Q297.08-13.05 297.56-16.57 298.03-20.1 298.18-20.6L298.18-20.6Q299.03-24.15 301.53-30.75L301.53-30.75Q301.98-32 302.58-34.52 303.18-37.05 303.78-39.23 304.38-41.4 305.28-43.7 306.18-46 307.71-47.6 309.23-49.2 311.23-49.7L311.23-49.7Q312.93-50.1 314-49.53 315.08-48.95 315.48-47.8 315.88-46.65 315.91-45.08 315.93-43.5 315.75-42.25 315.58-41 315.28-39.85L315.28-39.85Q314.73-38 313.53-35.55L313.53-35.55Q312.33-33.15 311.88-32.1L311.88-32.1Q311.18-30.15 309.93-28.15L309.93-28.15Q309.33-27.3 308.16-25.33 306.98-23.35 306.23-22.45L306.23-22.45Q305.18-21.05 303.93-19.7L303.93-19.7Q303.78-19.55 303.33-19.13 302.88-18.7 302.56-18.32 302.23-17.95 302.13-17.6L302.13-17.6Q302.08-17.45 302.21-17.25 302.33-17.05 302.48-17.1L302.48-17.1Q302.58-17.1 302.73-17.2L302.73-17.2Q303.13-17.5 303.83-18.2 304.53-18.9 305.16-19.3 305.78-19.7 306.48-19.8L306.48-19.8Q306.88-19.85 307.28-19.9L307.28-19.9Q309.43-20.15 310.75-19.5 312.08-18.85 312.98-17.15L312.98-17.15Q313.78-15.4 313.78-13.15L313.78-13.15Q313.78-11.15 314.43-8.45L314.43-8.45Q315.03-5.75 315.78-4.4L315.78-4.4Q316.23-3.6 316.78-3.45 317.33-3.3 319.03-3.5L319.03-3.5Q321.08-3.75 322.38-4.25L322.38-4.25Q325.78-6.05 327.78-7.65ZM308.38-38.2L308.38-38.2Q308.28-38 308.08-37.63 307.88-37.25 307.73-36.93 307.58-36.6 307.43-36.3L307.43-36.3Q306.33-34 305.68-31.5L305.68-31.5Q305.43-30.55 305.08-29.58 304.73-28.6 304.21-27.25 303.68-25.9 303.48-25.4L303.48-25.4Q303.18-24.6 303.58-24.35L303.58-24.35Q303.78-24.2 304.13-24.55L304.13-24.55Q304.93-25.35 305.48-26.33 306.03-27.3 306.56-28.6 307.08-29.9 307.43-30.6L307.43-30.6Q308.88-33.25 309.88-37.25L309.88-37.25Q309.98-37.5 310.28-38.18 310.58-38.85 310.78-39.38 310.98-39.9 311.06-40.55 311.13-41.2 310.78-41.4L310.78-41.4Q310.43-41.7 309.93-41.1L309.93-41.1Q309.53-40.7 308.88-39.25L308.88-39.25Q308.68-38.75 308.38-38.2ZM302.53-17.1L302.53-17.1ZM360-6.1L360-6.1Q360.95-6.85 361.63-6.73 362.3-6.6 362.3-5.4L362.3-5.4Q362.3-5.15 362.2-4.88 362.1-4.6 361.98-4.38 361.85-4.15 361.6-3.9 361.35-3.65 361.15-3.45 360.95-3.25 360.65-3.03 360.35-2.8 360.15-2.68 359.95-2.55 359.65-2.35 359.35-2.15 359.2-2.05L359.2-2.05Q358.25-1.4 357.2-0.95L357.2-0.95Q357.1-0.9 356-0.35L356-0.35 355.75-0.05Q354.4 1.25 351.85 1.55L351.85 1.55Q350.25 1.75 349.38 1.58 348.5 1.4 346.95 0.7L346.95 0.7Q344.65-0.4 343.9-1.1L343.9-1.1Q343.4-1.5 343.05-1.45 342.7-1.4 341.75-0.65L341.75-0.65Q338.7 1.55 334.48 1.83 330.25 2.1 328.95 0.15L328.95 0.15Q328.15-1.1 328.23-4.7 328.3-8.3 329.15-9.85L329.15-9.85Q329.9-11.2 330.3-11.85L330.3-11.85Q330.75-12.5 331.15-13.05L331.15-13.05Q331.55-13.65 332.5-14.8L332.5-14.8Q335.65-18.7 337.45-20.15L337.45-20.15Q338.85-21.25 340.75-22.03 342.65-22.8 344.73-23.05 346.8-23.3 348.4-22.5L348.4-22.5Q350.35-21.5 350.8-19.07 351.25-16.65 350.7-14.38 350.15-12.1 349.15-10.1L349.15-10.1Q348.3-8.2 347.88-5.95 347.45-3.7 347.9-3L347.9-3Q348.85-1.1 354.15-2.75L354.15-2.75Q354.35-2.8 354.55-2.8L354.55-2.8Q354.85-2.9 355-3L355-3Q358.2-4.65 360-6.1ZM344.9-15.5L344.9-15.5Q345.45-15.8 345.5-16 345.55-16.2 345.25-16.5L345.25-16.5Q344.65-17.15 343.55-17.35 342.45-17.55 341.4-17.25L341.4-17.25Q340.35-17 338.23-15.25 336.1-13.5 335.35-12.25L335.35-12.25Q334.35-10.8 333.65-9.65L333.65-9.65Q332.8-8.45 332.5-6.15 332.2-3.85 332.75-3.15L332.75-3.15Q333.25-2.55 334.95-2.55 336.65-2.55 338.15-3.1L338.15-3.1Q339.6-3.8 340.3-5.2L340.3-5.2Q341.5-7.55 342.25-9L342.25-9Q343.55-11.25 343.55-12.05L343.55-12.05Q343.55-12.55 343.98-13.08 344.4-13.6 344.2-14.2L344.2-14.2Q343.95-15 344.9-15.5Z" opacity="1" transform="matrix(1,0,0,1,0,0)" fill="#51caf4" class="slogan-text-1" data-fill-palette-color="secondary" id="text-1"></path></svg></g></svg></g></svg></g></svg></g><g><svg viewBox="0 0 157.41684404871933 157.41938435246144" height="157.41938435246144" width="157.41684404871933"><g><svg xmlns="http://www.w3.org/2000/svg" data-name="Layer 1" viewBox="2 1.9990317540321212 60 60.000968245967876" x="0" y="0" height="157.41938435246144" width="157.41684404871933" class="icon-icon-0" data-fill-palette-color="accent" id="icon-0"><path d="M59 45.13A13 13 0 0 0 46 33H3A1 1 0 0 0 2 34 13 13 0 0 0 13 46.83V62H15V47H54V58A4 4 0 0 0 58 62H61A1 1 0 0 0 62 61V49A4 4 0 0 0 59 45.13M4 35H46A11 11 0 0 1 57 45H15A11 11 0 0 1 4 35M60 60H58A2 2 0 0 1 56 58V47H58A2 2 0 0 1 60 49Z" fill="#51caf4" data-fill-palette-color="accent"></path><path d="M22 57.09A3 3 0 0 0 28 57.09 8.8 8.8 0 0 1 30.16 59.53L31.86 58.47C30.06 55.59 27.62 54 25 54S19.94 55.59 18.15 58.47L19.85 59.53A8.8 8.8 0 0 1 22 57.09M26 57A1 1 0 1 1 25 56 1 1 0 0 1 26 57" fill="#51caf4" data-fill-palette-color="accent"></path><path d="M40 57.09A3 3 0 0 0 46 57.09 8.8 8.8 0 0 1 48.16 59.53L49.86 58.47C48.06 55.59 45.62 54 43 54S37.94 55.59 36.15 58.47L37.85 59.53A8.8 8.8 0 0 1 40 57.09M44 57A1 1 0 1 1 43 56 1 1 0 0 1 44 57" fill="#51caf4" data-fill-palette-color="accent"></path><path d="M9 5.68L13 4.08 17 5.68V8.43L12.49 11.14A1 1 0 0 0 12 12V16H14V12.57L18.51 9.86A1 1 0 0 0 19 9V5A1 1 0 0 0 18.37 4.07L13.37 2.07A1 1 0 0 0 12.63 2.07L7.63 4.07A1 1 0 0 0 7 5V9H9Z" fill="#51caf4" data-fill-palette-color="accent"></path><rect x="12" y="18" width="2" height="2" fill="#51caf4" data-fill-palette-color="accent"></rect><path d="M28 5.68L32 4.08 36 5.68V8.43L31.49 11.14A1 1 0 0 0 31 12V16H33V12.57L37.51 9.86A1 1 0 0 0 38 9V5A1 1 0 0 0 37.37 4.07L32.37 2.07A1 1 0 0 0 31.63 2.07L26.63 4.07A1 1 0 0 0 26 5V9H28Z" fill="#51caf4" data-fill-palette-color="accent"></path><rect x="31" y="18" width="2" height="2" fill="#51caf4" data-fill-palette-color="accent"></rect><path d="M47 5.68L51 4.08 55 5.68V8.43L50.49 11.14A1 1 0 0 0 50 12V16H52V12.57L56.51 9.86A1 1 0 0 0 57 9V5A1 1 0 0 0 56.37 4.07L51.37 2.07A1 1 0 0 0 50.63 2.07L45.63 4.07A1 1 0 0 0 45 5V9H47Z" fill="#51caf4" data-fill-palette-color="accent"></path><rect x="50" y="18" width="2" height="2" fill="#51caf4" data-fill-palette-color="accent"></rect></svg></g></svg></g></svg></g><defs></defs></svg><rect width="395.52" height="105.732616020375" fill="none" stroke="none" visibility="hidden"></rect></g></svg></g></svg>