<svg xmlns="http://www.w3.org/2000/svg" version="1.1" xmlns:xlink="http://www.w3.org/1999/xlink" xmlns:svgjs="http://svgjs.dev/svgjs" width="1500" height="337" viewBox="0 0 1500 337"><g transform="matrix(1,0,0,1,-0.9090909090909918,-1.3394598776202145)"><svg viewBox="0 0 396 89" data-background-color="#444444" preserveAspectRatio="xMidYMid meet" height="337" width="1500" xmlns="http://www.w3.org/2000/svg" xmlns:xlink="http://www.w3.org/1999/xlink"><g id="tight-bounds" transform="matrix(1,0,0,1,0.2400000000000091,0.3537445967602366)"><svg viewBox="0 0 395.52 88.2925108064795" height="88.2925108064795" width="395.52"><g><svg viewBox="0 0 571.2235876012395 127.51508085861254" height="88.2925108064795" width="395.52"><g><rect width="5.524866909387004" height="92.72985257807927" x="155.71571831125826" y="17.39261414026663" fill="#ffffff" opacity="1" stroke-width="0" stroke="transparent" fill-opacity="1" class="rect-yte-0" data-fill-palette-color="primary" rx="1%" id="yte-0" data-palette-color="#ffffff"></rect></g><g transform="matrix(1,0,0,1,175.70358760123952,17.623285415336476)"><svg viewBox="0 0 395.52 92.26851002793958" height="92.26851002793958" width="395.52"><g id="textblocktransform"><svg viewBox="0 0 395.52 92.26851002793958" height="92.26851002793958" width="395.52" id="textblock"><g><svg viewBox="0 0 395.52 61.26417924987822" height="61.26417924987822" width="395.52"><g transform="matrix(1,0,0,1,0,0)"><svg width="395.52" viewBox="4.85 -35.7 307.91999999999996 47.7" height="61.26417924987822" data-palette-color="#ffffff"><path d="M33.15-35.7L33.15 0 27.9 0 8.8-29.65 8.6-29.65Q8.7-28.5 8.78-26.93 8.85-25.35 8.93-23.58 9-21.8 9-19.95L9-19.95 9 0 4.85 0 4.85-35.7 10.05-35.7 29.1-6.15 29.3-6.15Q29.25-6.95 29.18-8.55 29.1-10.15 29.03-12.05 28.95-13.95 28.95-15.55L28.95-15.55 28.95-35.7 33.15-35.7ZM65.55-13.45L65.55-13.45Q65.55-10.1 64.67-7.53 63.8-4.95 62.17-3.15 60.55-1.35 58.22-0.43 55.9 0.5 53.05 0.5L53.05 0.5Q50.4 0.5 48.15-0.43 45.9-1.35 44.25-3.15 42.6-4.95 41.67-7.53 40.75-10.1 40.75-13.45L40.75-13.45Q40.75-17.9 42.25-20.98 43.75-24.05 46.55-25.68 49.35-27.3 53.2-27.3L53.2-27.3Q56.85-27.3 59.62-25.68 62.4-24.05 63.97-20.98 65.55-17.9 65.55-13.45ZM45.3-13.45L45.3-13.45Q45.3-10.3 46.12-7.98 46.95-5.65 48.7-4.4 50.45-3.15 53.15-3.15L53.15-3.15Q55.85-3.15 57.6-4.4 59.35-5.65 60.17-7.98 61-10.3 61-13.45L61-13.45Q61-16.65 60.15-18.9 59.3-21.15 57.57-22.38 55.85-23.6 53.1-23.6L53.1-23.6Q49-23.6 47.15-20.9 45.3-18.2 45.3-13.45ZM114.89-27.3L114.89-27.3Q119.44-27.3 121.69-24.98 123.94-22.65 123.94-17.45L123.94-17.45 123.94 0 119.59 0 119.59-17.25Q119.59-20.4 118.27-22 116.94-23.6 114.14-23.6L114.14-23.6Q110.24-23.6 108.57-21.35 106.89-19.1 106.89-14.8L106.89-14.8 106.89 0 102.54 0 102.54-17.25Q102.54-19.35 101.94-20.78 101.34-22.2 100.14-22.9 98.94-23.6 97.04-23.6L97.04-23.6Q94.34-23.6 92.79-22.48 91.24-21.35 90.57-19.2 89.89-17.05 89.89-13.9L89.89-13.9 89.89 0 85.49 0 85.49-26.8 89.04-26.8 89.69-23.15 89.94-23.15Q90.79-24.55 92.02-25.48 93.24-26.4 94.74-26.85 96.24-27.3 97.84-27.3L97.84-27.3Q100.94-27.3 103.02-26.2 105.09-25.1 106.04-22.8L106.04-22.8 106.29-22.8Q107.64-25.1 109.97-26.2 112.29-27.3 114.89-27.3ZM142.59-27.3L142.59-27.3Q146.04-27.3 148.52-25.8 150.99-24.3 152.31-21.58 153.64-18.85 153.64-15.2L153.64-15.2 153.64-12.55 135.29-12.55Q135.39-8 137.62-5.63 139.84-3.25 143.84-3.25L143.84-3.25Q146.39-3.25 148.37-3.73 150.34-4.2 152.44-5.1L152.44-5.1 152.44-1.25Q150.39-0.35 148.39 0.08 146.39 0.5 143.64 0.5L143.64 0.5Q139.84 0.5 136.92-1.05 133.99-2.6 132.37-5.68 130.74-8.75 130.74-13.2L130.74-13.2Q130.74-17.6 132.22-20.75 133.69-23.9 136.37-25.6 139.04-27.3 142.59-27.3ZM142.54-23.7L142.54-23.7Q139.39-23.7 137.56-21.68 135.74-19.65 135.39-16.05L135.39-16.05 149.04-16.05Q149.04-18.35 148.34-20.05 147.64-21.75 146.22-22.73 144.79-23.7 142.54-23.7ZM177.89-7.4L177.89-7.4Q177.89-4.8 176.59-3.05 175.29-1.3 172.89-0.4 170.49 0.5 167.19 0.5L167.19 0.5Q164.39 0.5 162.36 0.05 160.34-0.4 158.79-1.2L158.79-1.2 158.79-5.2Q160.39-4.4 162.66-3.73 164.94-3.05 167.29-3.05L167.29-3.05Q170.64-3.05 172.14-4.13 173.64-5.2 173.64-7L173.64-7Q173.64-8 173.09-8.8 172.54-9.6 171.11-10.4 169.69-11.2 167.04-12.2L167.04-12.2Q164.44-13.2 162.59-14.2 160.74-15.2 159.74-16.6 158.74-18 158.74-20.2L158.74-20.2Q158.74-23.6 161.51-25.45 164.29-27.3 168.79-27.3L168.79-27.3Q171.24-27.3 173.36-26.83 175.49-26.35 177.34-25.5L177.34-25.5 175.84-22Q174.14-22.7 172.29-23.2 170.44-23.7 168.49-23.7L168.49-23.7Q165.79-23.7 164.36-22.83 162.94-21.95 162.94-20.45L162.94-20.45Q162.94-19.35 163.59-18.57 164.24-17.8 165.76-17.07 167.29-16.35 169.84-15.35L169.84-15.35Q172.39-14.4 174.19-13.4 175.99-12.4 176.94-10.98 177.89-9.55 177.89-7.4ZM201.83-7.4L201.83-7.4Q201.83-4.8 200.53-3.05 199.23-1.3 196.83-0.4 194.44 0.5 191.13 0.5L191.13 0.5Q188.33 0.5 186.31 0.05 184.28-0.4 182.73-1.2L182.73-1.2 182.73-5.2Q184.33-4.4 186.61-3.73 188.88-3.05 191.23-3.05L191.23-3.05Q194.58-3.05 196.08-4.13 197.58-5.2 197.58-7L197.58-7Q197.58-8 197.03-8.8 196.48-9.6 195.06-10.4 193.63-11.2 190.98-12.2L190.98-12.2Q188.38-13.2 186.53-14.2 184.69-15.2 183.69-16.6 182.69-18 182.69-20.2L182.69-20.2Q182.69-23.6 185.46-25.45 188.23-27.3 192.73-27.3L192.73-27.3Q195.19-27.3 197.31-26.83 199.44-26.35 201.28-25.5L201.28-25.5 199.78-22Q198.08-22.7 196.23-23.2 194.38-23.7 192.44-23.7L192.44-23.7Q189.73-23.7 188.31-22.83 186.88-21.95 186.88-20.45L186.88-20.45Q186.88-19.35 187.53-18.57 188.19-17.8 189.71-17.07 191.23-16.35 193.78-15.35L193.78-15.35Q196.33-14.4 198.13-13.4 199.94-12.4 200.88-10.98 201.83-9.55 201.83-7.4ZM218.48-27.25L218.48-27.25Q223.38-27.25 225.73-25.1 228.08-22.95 228.08-18.25L228.08-18.25 228.08 0 224.88 0 224.03-3.8 223.83-3.8Q222.68-2.35 221.46-1.38 220.23-0.4 218.66 0.05 217.08 0.5 214.83 0.5L214.83 0.5Q212.43 0.5 210.51-0.35 208.58-1.2 207.48-2.98 206.38-4.75 206.38-7.45L206.38-7.45Q206.38-11.45 209.53-13.63 212.68-15.8 219.23-16L219.23-16 223.78-16.15 223.78-17.75Q223.78-21.1 222.33-22.4 220.88-23.7 218.23-23.7L218.23-23.7Q216.13-23.7 214.23-23.08 212.33-22.45 210.68-21.65L210.68-21.65 209.33-24.95Q211.08-25.9 213.48-26.58 215.88-27.25 218.48-27.25ZM223.73-13.1L219.78-12.95Q214.78-12.75 212.86-11.35 210.93-9.95 210.93-7.4L210.93-7.4Q210.93-5.15 212.31-4.1 213.68-3.05 215.83-3.05L215.83-3.05Q219.23-3.05 221.48-4.93 223.73-6.8 223.73-10.7L223.73-10.7 223.73-13.1ZM245.88-27.3L245.88-27.3Q248.53-27.3 250.66-26.3 252.78-25.3 254.28-23.25L254.28-23.25 254.53-23.25 255.13-26.8 258.63-26.8 258.63 0.45Q258.63 4.25 257.33 6.83 256.03 9.4 253.38 10.7 250.73 12 246.63 12L246.63 12Q243.73 12 241.31 11.58 238.88 11.15 236.98 10.3L236.98 10.3 236.98 6.25Q238.88 7.25 241.43 7.8 243.98 8.35 246.88 8.35L246.88 8.35Q250.33 8.35 252.31 6.33 254.28 4.3 254.28 0.8L254.28 0.8 254.28-0.25Q254.28-0.85 254.33-1.98 254.38-3.1 254.43-3.55L254.43-3.55 254.23-3.55Q252.83-1.5 250.75-0.5 248.68 0.5 245.93 0.5L245.93 0.5Q240.73 0.5 237.81-3.15 234.88-6.8 234.88-13.35L234.88-13.35Q234.88-19.75 237.81-23.53 240.73-27.3 245.88-27.3ZM246.48-23.6L246.48-23.6Q244.23-23.6 242.66-22.4 241.08-21.2 240.25-18.9 239.43-16.6 239.43-13.3L239.43-13.3Q239.43-8.35 241.25-5.73 243.08-3.1 246.58-3.1L246.58-3.1Q248.63-3.1 250.08-3.63 251.53-4.15 252.48-5.28 253.43-6.4 253.88-8.15 254.33-9.9 254.33-12.3L254.33-12.3 254.33-13.35Q254.33-17 253.5-19.25 252.68-21.5 250.93-22.55 249.18-23.6 246.48-23.6ZM277.48-27.3L277.48-27.3Q280.93-27.3 283.4-25.8 285.88-24.3 287.2-21.58 288.53-18.85 288.53-15.2L288.53-15.2 288.53-12.55 270.18-12.55Q270.28-8 272.5-5.63 274.73-3.25 278.73-3.25L278.73-3.25Q281.28-3.25 283.25-3.73 285.23-4.2 287.33-5.1L287.33-5.1 287.33-1.25Q285.28-0.35 283.28 0.08 281.28 0.5 278.53 0.5L278.53 0.5Q274.73 0.5 271.8-1.05 268.88-2.6 267.25-5.68 265.63-8.75 265.63-13.2L265.63-13.2Q265.63-17.6 267.1-20.75 268.58-23.9 271.25-25.6 273.93-27.3 277.48-27.3ZM277.43-23.7L277.43-23.7Q274.28-23.7 272.45-21.68 270.63-19.65 270.28-16.05L270.28-16.05 283.93-16.05Q283.93-18.35 283.23-20.05 282.53-21.75 281.1-22.73 279.68-23.7 277.43-23.7ZM312.77-7.4L312.77-7.4Q312.77-4.8 311.47-3.05 310.18-1.3 307.77-0.4 305.38 0.5 302.07 0.5L302.07 0.5Q299.27 0.5 297.25 0.05 295.22-0.4 293.68-1.2L293.68-1.2 293.68-5.2Q295.27-4.4 297.55-3.73 299.82-3.05 302.18-3.05L302.18-3.05Q305.52-3.05 307.02-4.13 308.52-5.2 308.52-7L308.52-7Q308.52-8 307.97-8.8 307.43-9.6 306-10.4 304.57-11.2 301.93-12.2L301.93-12.2Q299.32-13.2 297.47-14.2 295.63-15.2 294.63-16.6 293.63-18 293.63-20.2L293.63-20.2Q293.63-23.6 296.4-25.45 299.18-27.3 303.68-27.3L303.68-27.3Q306.13-27.3 308.25-26.83 310.38-26.35 312.22-25.5L312.22-25.5 310.72-22Q309.02-22.7 307.18-23.2 305.32-23.7 303.38-23.7L303.38-23.7Q300.68-23.7 299.25-22.83 297.82-21.95 297.82-20.45L297.82-20.45Q297.82-19.35 298.47-18.57 299.13-17.8 300.65-17.07 302.18-16.35 304.72-15.35L304.72-15.35Q307.27-14.4 309.07-13.4 310.88-12.4 311.82-10.98 312.77-9.55 312.77-7.4Z" opacity="1" transform="matrix(1,0,0,1,0,0)" fill="#ffffff" class="wordmark-text-0" data-fill-palette-color="primary" id="text-0"></path></svg></g></svg></g><g transform="matrix(1,0,0,1,179.29185473879522,75.72718163047247)"><svg viewBox="0 0 36.93629052240956 16.54132839746712" height="16.54132839746712" width="36.93629052240956"><g transform="matrix(1,0,0,1,0,0)"><svg width="36.93629052240956" viewBox="4.85 -36.2 81.95 36.7" height="16.54132839746712" data-palette-color="#58b0ef"><path d="M33.15-35.7L33.15 0 27.9 0 8.8-29.65 8.6-29.65Q8.7-28.5 8.78-26.93 8.85-25.35 8.93-23.58 9-21.8 9-19.95L9-19.95 9 0 4.85 0 4.85-35.7 10.05-35.7 29.1-6.15 29.3-6.15Q29.25-6.95 29.18-8.55 29.1-10.15 29.03-12.05 28.95-13.95 28.95-15.55L28.95-15.55 28.95-35.7 33.15-35.7ZM52.1-11.45L40-11.45 40-15.35 52.1-15.35 52.1-11.45ZM74.45-14.85L74.45-18.85 86.8-18.85 86.8-1.35Q83.9-0.4 80.95 0.05 78 0.5 74.25 0.5L74.25 0.5Q68.7 0.5 64.9-1.73 61.1-3.95 59.12-8.08 57.15-12.2 57.15-17.85L57.15-17.85Q57.15-23.45 59.35-27.55 61.55-31.65 65.67-33.93 69.8-36.2 75.65-36.2L75.65-36.2Q78.65-36.2 81.32-35.65 84-35.1 86.3-34.1L86.3-34.1 84.59-30.2Q82.7-31.05 80.32-31.65 77.95-32.25 75.4-32.25L75.4-32.25Q71.15-32.25 68.09-30.5 65.05-28.75 63.45-25.53 61.85-22.3 61.85-17.85L61.85-17.85Q61.85-13.6 63.22-10.33 64.59-7.05 67.55-5.23 70.5-3.4 75.3-3.4L75.3-3.4Q77.65-3.4 79.3-3.65 80.95-3.9 82.3-4.25L82.3-4.25 82.3-14.85 74.45-14.85Z" opacity="1" transform="matrix(1,0,0,1,0,0)" fill="#58b0ef" class="slogan-text-1" data-fill-palette-color="secondary" id="text-1"></path></svg></g></svg></g></svg></g></svg></g><g><svg viewBox="0 0 141.252715930664 127.51508085861254" height="127.51508085861254" width="141.252715930664"><g><svg xmlns="http://www.w3.org/2000/svg" xmlns:xlink="http://www.w3.org/1999/xlink" version="1.1" x="0" y="0" viewBox="2.969 8.649 94.524 85.331" enable-background="new 0 0 100 100" xml:space="preserve" height="127.51508085861254" width="141.252715930664" class="icon-icon-0" data-fill-palette-color="accent" id="icon-0"><g display="none" fill="#58b0ef" data-fill-palette-color="accent"><polygon display="inline" points="45.454,16.378 11.119,16.378 11.119,50.713 29.547,77.188 42.673,67.431 31.152,50.713    45.454,50.713  " fill="#58b0ef" data-fill-palette-color="accent"></polygon><polygon display="inline" points="87.528,16.378 53.192,16.378 53.192,50.713 71.621,77.188 84.747,67.431 73.226,50.713    87.528,50.713  " fill="#58b0ef" data-fill-palette-color="accent"></polygon></g><g fill="#58b0ef" data-fill-palette-color="accent"><path d="M85.871 8.649H14.591C8.173 8.649 2.969 13.853 2.969 20.271V72.764C2.969 79.183 8.172 84.387 14.591 84.387H23.704L23.709 93.98 35.704 84.387H85.871C92.29 84.387 97.493 79.183 97.493 72.764V20.271C97.493 13.853 92.29 8.649 85.871 8.649M54.03 71.383H44.022V61.374H54.03zM60.952 46.323C56.808 47.906 54.151 50.96 54.151 55.517H43.9C43.9 43.901 51.312 40.406 56.033 39.266 58.928 38.567 61.713 37.654 61.87 33.716 61.997 30.541 60.138 26.628 52.262 26.785 43.534 26.96 42.95 33.354 42.922 35.475L32.671 35.602C32.658 34.906 32.675 28.656 37.531 23.701 41.128 20.03 46.227 18.169 52.686 18.169 67.745 18.169 71.495 27.754 71.725 32.815 72.109 41.277 65.453 44.604 60.952 46.323" fill="#58b0ef" data-fill-palette-color="accent"></path></g></svg></g></svg></g></svg></g><defs></defs></svg><rect width="395.52" height="88.2925108064795" fill="none" stroke="none" visibility="hidden"></rect></g></svg></g></svg>